# xmcd
#
# Track frame offsets:
#	150
#	19685
#	34581
#	53777
#	70888
#	85445
#	98989
#	118116
#	133778
#	147782
#	162131
#	178130
#	191670
#
# Disc length: 2823 seconds
#
# Revision: 1
# Processed by: cddbd v1.5.2PL0 Copyright (c) Steve Scherf et al.
# Submitted via: audiograbber 1.83.01
#
DISCID=b50b050d
DTITLE=Santiano - Mit den Gezeiten
DYEAR=1900
DGENRE=
TTITLE0=Bis in alle Ewigkeit
TTITLE1=Drums and Guns
TTITLE2=Gestrandet
TTITLE3=Gott muss ein Seemann sein
TTITLE4=Great Song of Indifference
TTITLE5=Have A Drink On Me
TTITLE6=Hoch im Norden
TTITLE7=Marie
TTITLE8=Rolling Home
TTITLE9=Salz auf unserer Haut
TTITLE10=Seemann
TTITLE11=Sieben Jahre
TTITLE12=Wir sind uns treu
EXTD=
EXTT0=
EXTT1=
EXTT2=
EXTT3=
EXTT4=
EXTT5=
EXTT6=
EXTT7=
EXTT8=
EXTT9=
EXTT10=
EXTT11=
EXTT12=
PLAYORDER=
